<svg width="40" height="40" viewBox="0 0 40 40" fill="none" xmlns="http://www.w3.org/2000/svg">
<path d="M29.0938 0H8.90625C3.99535 0 0 3.99535 0 8.90625V29.0938C0 34.0047 3.99535 38 8.90625 38H29.0938C34.0047 38 38 34.0047 38 29.0938V8.90625C38 3.99535 34.0047 0 29.0938 0ZM35.0312 29.0938C35.0312 32.3678 32.3678 35.0312 29.0938 35.0312H8.90625C5.63222 35.0312 2.96875 32.3678 2.96875 29.0938V8.90625C2.96875 5.63222 5.63222 2.96875 8.90625 2.96875H29.0938C32.3678 2.96875 35.0312 5.63222 35.0312 8.90625V29.0938ZM19 10.6133C14.3755 10.6133 10.6133 14.3755 10.6133 19C10.6133 23.6245 14.3755 27.3867 19 27.3867C23.6245 27.3867 27.3867 23.6245 27.3867 19C27.3867 14.3755 23.6245 10.6133 19 10.6133ZM19 24.418C16.0124 24.418 13.582 21.9876 13.582 19C13.582 16.0124 16.0124 13.582 19 13.582C21.9876 13.582 24.418 16.0124 24.418 19C24.418 21.9876 21.9876 24.418 19 24.418ZM30.677 9.17848C30.677 10.203 29.8464 11.034 28.8215 11.034C27.797 11.034 26.966 10.203 26.966 9.17848C26.966 8.15363 27.797 7.32301 28.8215 7.32301C29.8464 7.32301 30.677 8.15363 30.677 9.17848Z" fill="#7F786C"/>
</svg>
