<svg width="40" height="40" viewBox="0 0 40 40" fill="none" xmlns="http://www.w3.org/2000/svg">
<path d="M34.6602 0H3.33984C1.49454 0 0 1.6885 0 3.75V26.25C0 28.3238 1.50553 30 3.33984 30H34.6602C36.49 30 38 28.3308 38 26.25V3.75C38 1.69217 36.5114 0 34.6602 0ZM34.1924 2.5C33.5101 3.26208 21.7671 16.3778 21.3616 16.8306C20.7308 17.5389 19.8921 17.9289 19 17.9289C18.1079 17.9289 17.2692 17.5388 16.6363 16.8283C16.3636 16.5237 4.75022 3.55283 3.80757 2.5H34.1924ZM2.22656 25.7412V4.26042L11.8481 15.0067L2.22656 25.7412ZM3.80898 27.5L13.4268 16.7698L15.064 18.5983C16.1153 19.7788 17.5132 20.4289 19 20.4289C20.4868 20.4289 21.8847 19.7788 22.934 18.6007L24.5732 16.7698L34.191 27.5H3.80898ZM35.7734 25.7412L26.1519 15.0067L35.7734 4.26042V25.7412Z" fill="#7F786C"/>
</svg>
