<svg width="41" height="35" viewBox="0 0 41 35" fill="none" xmlns="http://www.w3.org/2000/svg">
<path d="M21.8619 27.414L13.9452 34.6669C13.7082 34.7975 13.4001 35.1243 12.76 34.95C12.4283 34.8411 12.0253 34.4925 11.9542 34.1006V34.0788L9.67871 21.577L11.5276 20.292C11.767 20.421 16.3356 22.8827 16.0547 22.7314L21.8618 25.8677C22.3123 26.3033 22.3123 26.9784 21.8619 27.414Z" fill="#7F786C"/>
<path d="M40.4293 1.30739L33.2389 34.1223C33.1678 34.4708 32.8834 34.7757 32.5041 34.9064C32.3619 34.9717 32.2197 34.9935 32.0775 34.9935C31.8405 34.9935 31.6034 34.9282 31.3901 34.7975C31.1517 34.641 13.6874 23.1782 14.7983 23.9074C4.2238 19.094 9.73962 21.6239 0.663672 17.4605C0.237026 17.2644 0 16.8724 0 16.4586C0.0237026 16.023 0.284431 15.6527 0.711077 15.4785L38.7938 0.0876947C39.1968 -0.0647668 39.6708 -0.0212063 40.0027 0.240156C40.0501 0.283717 40.1212 0.349057 40.1686 0.392618C40.4056 0.65398 40.5004 0.980683 40.4293 1.30739Z" fill="#7F786C"/>
<path d="M40.1688 0.392578L16.0547 22.7312L14.7985 23.9073L12.76 34.9499C12.4283 34.841 12.0253 34.4924 11.9542 34.1004V34.0786L9.67871 21.5768L11.5276 20.2918L40.1688 0.392578Z" fill="#7F786C"/>
</svg>
